<svg width="117" height="56" viewBox="0 0 117 56" fill="none" xmlns="http://www.w3.org/2000/svg">
<path d="M4.38494 23V11.888L2.12894 13.568L0.0169374 10.256L5.36894 6.512H8.89694V23H4.38494ZM21.8974 20.96C20.6974 22.48 19.0814 23.24 17.0494 23.24C15.0174 23.24 13.3934 22.48 12.1774 20.96C10.9774 19.44 10.3774 17.368 10.3774 14.744C10.3774 12.168 10.9774 10.112 12.1774 8.576C13.3934 7.04 15.0174 6.272 17.0494 6.272C19.0814 6.272 20.6974 7.032 21.8974 8.552C23.1134 10.072 23.7214 12.136 23.7214 14.744C23.7214 17.352 23.1134 19.424 21.8974 20.96ZM17.0494 19.064C17.6734 19.064 18.1694 18.712 18.5374 18.008C18.9214 17.304 19.1134 16.216 19.1134 14.744C19.1134 13.432 18.9454 12.392 18.6094 11.624C18.2734 10.84 17.7534 10.448 17.0494 10.448C16.4094 10.448 15.9054 10.8 15.5374 11.504C15.1694 12.208 14.9854 13.288 14.9854 14.744C14.9854 16.072 15.1534 17.128 15.4894 17.912C15.8254 18.68 16.3454 19.064 17.0494 19.064ZM36.0134 20.96C34.8134 22.48 33.1974 23.24 31.1654 23.24C29.1334 23.24 27.5094 22.48 26.2934 20.96C25.0934 19.44 24.4934 17.368 24.4934 14.744C24.4934 12.168 25.0934 10.112 26.2934 8.576C27.5094 7.04 29.1334 6.272 31.1654 6.272C33.1974 6.272 34.8134 7.032 36.0134 8.552C37.2294 10.072 37.8374 12.136 37.8374 14.744C37.8374 17.352 37.2294 19.424 36.0134 20.96ZM31.1654 19.064C31.7894 19.064 32.2854 18.712 32.6534 18.008C33.0374 17.304 33.2294 16.216 33.2294 14.744C33.2294 13.432 33.0614 12.392 32.7254 11.624C32.3894 10.84 31.8694 10.448 31.1654 10.448C30.5254 10.448 30.0214 10.8 29.6534 11.504C29.2854 12.208 29.1014 13.288 29.1014 14.744C29.1014 16.072 29.2694 17.128 29.6054 17.912C29.9414 18.68 30.4614 19.064 31.1654 19.064ZM47.5853 23.672L44.6573 22.424L52.2893 5.528L55.1933 6.8L47.5853 23.672ZM43.1933 15.368C41.8173 15.368 40.6573 14.92 39.7133 14.024C38.7853 13.112 38.3213 11.944 38.3213 10.52C38.3213 9.176 38.7693 8.048 39.6653 7.136C40.5773 6.208 41.7533 5.744 43.1933 5.744C44.5693 5.744 45.7293 6.192 46.6733 7.088C47.6173 7.968 48.0893 9.112 48.0893 10.52C48.0893 11.88 47.6333 13.032 46.7213 13.976C45.8093 14.904 44.6333 15.368 43.1933 15.368ZM43.2173 12.632C43.7613 12.632 44.2013 12.432 44.5373 12.032C44.8733 11.632 45.0413 11.144 45.0413 10.568C45.0413 9.96 44.8653 9.464 44.5133 9.08C44.1613 8.696 43.7293 8.504 43.2173 8.504C42.6893 8.504 42.2493 8.704 41.8973 9.104C41.5613 9.504 41.3933 9.992 41.3933 10.568C41.3933 11.176 41.5693 11.672 41.9213 12.056C42.2733 12.44 42.7053 12.632 43.2173 12.632ZM56.6333 23.24C55.2573 23.24 54.0973 22.792 53.1533 21.896C52.2253 20.984 51.7613 19.824 51.7613 18.416C51.7613 17.056 52.2093 15.912 53.1053 14.984C54.0173 14.056 55.1933 13.592 56.6333 13.592C58.0093 13.592 59.1613 14.04 60.0893 14.936C61.0333 15.832 61.5053 16.992 61.5053 18.416C61.5053 19.76 61.0493 20.904 60.1373 21.848C59.2413 22.776 58.0733 23.24 56.6333 23.24ZM56.6573 20.504C57.2013 20.504 57.6413 20.304 57.9773 19.904C58.3133 19.504 58.4813 19.016 58.4813 18.44C58.4813 17.832 58.3053 17.344 57.9533 16.976C57.6013 16.592 57.1693 16.4 56.6573 16.4C56.1133 16.4 55.6733 16.6 55.3373 17C55.0013 17.384 54.8333 17.864 54.8333 18.44C54.8333 19.048 55.0093 19.544 55.3613 19.928C55.7133 20.312 56.1453 20.504 56.6573 20.504Z" fill="#333461"/>
<path d="M3.56981 47.072C2.37781 47.072 1.36981 46.632 0.545811 45.752L1.21781 44.96C1.51381 45.328 1.87381 45.608 2.29781 45.8C2.72181 45.992 3.14981 46.088 3.58181 46.088C4.10981 46.088 4.52981 45.972 4.84181 45.74C5.16181 45.508 5.32181 45.188 5.32181 44.78C5.32181 44.556 5.28181 44.364 5.20181 44.204C5.12981 44.044 5.00181 43.904 4.81781 43.784C4.63381 43.656 4.45381 43.556 4.27781 43.484C4.10981 43.404 3.86581 43.304 3.54581 43.184C3.48981 43.16 3.44581 43.144 3.41381 43.136C3.10181 43.024 2.84581 42.928 2.64581 42.848C2.45381 42.76 2.22981 42.64 1.97381 42.488C1.72581 42.336 1.52981 42.184 1.38581 42.032C1.24981 41.872 1.12981 41.676 1.02581 41.444C0.921811 41.204 0.869811 40.94 0.869811 40.652C0.869811 40.02 1.12181 39.488 1.62581 39.056C2.12981 38.624 2.74581 38.404 3.47381 38.396C4.43381 38.396 5.33381 38.728 6.17381 39.392L5.53781 40.208C4.87381 39.648 4.18581 39.368 3.47381 39.368C3.05781 39.368 2.70181 39.48 2.40581 39.704C2.10981 39.92 1.96181 40.22 1.96181 40.604C1.96181 40.764 1.99381 40.912 2.05781 41.048C2.12181 41.176 2.19381 41.284 2.27381 41.372C2.35381 41.452 2.49381 41.544 2.69381 41.648C2.89381 41.752 3.04981 41.832 3.16181 41.888C3.28181 41.936 3.48581 42.016 3.77381 42.128C4.65381 42.464 5.23381 42.728 5.51381 42.92C6.11381 43.328 6.41381 43.912 6.41381 44.672C6.41381 45.424 6.13381 46.012 5.57381 46.436C5.02181 46.86 4.35381 47.072 3.56981 47.072ZM11.8376 41.156H12.8096V47H11.8376V46.028H11.8256C11.3376 46.724 10.6976 47.072 9.90562 47.072C9.20962 47.072 8.66962 46.872 8.28562 46.472C7.90162 46.064 7.70962 45.452 7.70962 44.636V41.156H8.68162V44.36C8.68162 45.008 8.79762 45.476 9.02962 45.764C9.26962 46.044 9.62962 46.184 10.1096 46.184C10.5896 46.184 10.9976 45.988 11.3336 45.596C11.6696 45.196 11.8376 44.66 11.8376 43.988V41.156ZM17.0151 47.072C16.1671 47.072 15.4711 46.796 14.9271 46.244C14.3911 45.684 14.1231 44.964 14.1231 44.084C14.1231 43.204 14.3951 42.484 14.9391 41.924C15.4911 41.364 16.1951 41.084 17.0511 41.084C17.4991 41.084 17.9311 41.176 18.3471 41.36C18.7711 41.536 19.1231 41.792 19.4031 42.128L18.7311 42.716C18.3391 42.228 17.7951 41.984 17.0991 41.984C16.5151 41.984 16.0351 42.18 15.6591 42.572C15.2911 42.964 15.1071 43.468 15.1071 44.084C15.1071 44.708 15.2911 45.216 15.6591 45.608C16.0271 45.992 16.5071 46.184 17.0991 46.184C17.7791 46.184 18.3311 45.952 18.7551 45.488L19.4271 46.088C19.1711 46.376 18.8311 46.612 18.4071 46.796C17.9831 46.98 17.5191 47.072 17.0151 47.072ZM23.1646 47.072C22.3166 47.072 21.6206 46.796 21.0766 46.244C20.5406 45.684 20.2726 44.964 20.2726 44.084C20.2726 43.204 20.5446 42.484 21.0886 41.924C21.6406 41.364 22.3446 41.084 23.2006 41.084C23.6486 41.084 24.0806 41.176 24.4966 41.36C24.9206 41.536 25.2726 41.792 25.5526 42.128L24.8806 42.716C24.4886 42.228 23.9446 41.984 23.2486 41.984C22.6646 41.984 22.1846 42.18 21.8086 42.572C21.4406 42.964 21.2566 43.468 21.2566 44.084C21.2566 44.708 21.4406 45.216 21.8086 45.608C22.1766 45.992 22.6566 46.184 23.2486 46.184C23.9286 46.184 24.4806 45.952 24.9046 45.488L25.5766 46.088C25.3206 46.376 24.9806 46.612 24.5566 46.796C24.1326 46.98 23.6686 47.072 23.1646 47.072ZM31.9301 43.988C31.9301 44.052 31.9261 44.136 31.9181 44.24L31.9061 44.384H27.4061C27.4701 44.928 27.6781 45.364 28.0301 45.692C28.3901 46.02 28.8341 46.184 29.3621 46.184C30.0421 46.184 30.5901 45.92 31.0061 45.392L31.6901 45.98C31.1221 46.708 30.3341 47.072 29.3261 47.072C28.4861 47.072 27.7901 46.796 27.2381 46.244C26.6941 45.684 26.4221 44.964 26.4221 44.084C26.4221 43.212 26.6861 42.496 27.2141 41.936C27.7501 41.368 28.4181 41.084 29.2181 41.084C30.0261 41.084 30.6781 41.356 31.1741 41.9C31.6781 42.444 31.9301 43.14 31.9301 43.988ZM30.4061 42.416C30.1101 42.128 29.7301 41.984 29.2661 41.984C28.8021 41.984 28.4021 42.128 28.0661 42.416C27.7381 42.696 27.5301 43.084 27.4421 43.58H30.9701C30.8901 43.092 30.7021 42.704 30.4061 42.416ZM35.0712 47.072C34.1672 47.072 33.4032 46.792 32.7792 46.232L33.2832 45.5C33.7872 45.964 34.3832 46.196 35.0712 46.196C35.4072 46.196 35.6752 46.12 35.8752 45.968C36.0752 45.816 36.1752 45.632 36.1752 45.416C36.1752 45.192 36.0752 45.024 35.8752 44.912C35.6832 44.792 35.3432 44.648 34.8552 44.48C34.8232 44.472 34.7992 44.464 34.7832 44.456C34.2152 44.256 33.7792 44.028 33.4752 43.772C33.1792 43.516 33.0312 43.144 33.0312 42.656C33.0312 42.208 33.2112 41.836 33.5712 41.54C33.9392 41.236 34.4032 41.084 34.9632 41.084C35.7072 41.084 36.3752 41.324 36.9672 41.804L36.4632 42.572C35.9992 42.172 35.4832 41.972 34.9152 41.972C34.6832 41.972 34.4752 42.036 34.2912 42.164C34.1072 42.292 34.0152 42.456 34.0152 42.656C34.0152 42.864 34.1032 43.032 34.2792 43.16C34.4632 43.288 34.7432 43.424 35.1192 43.568C35.1832 43.592 35.2992 43.636 35.4672 43.7C35.6432 43.764 35.7592 43.808 35.8152 43.832C35.8712 43.856 35.9672 43.9 36.1032 43.964C36.2392 44.02 36.3312 44.064 36.3792 44.096C36.4272 44.12 36.4992 44.164 36.5952 44.228C36.6992 44.292 36.7672 44.348 36.7992 44.396C36.8392 44.444 36.8872 44.508 36.9432 44.588C37.0072 44.668 37.0512 44.748 37.0752 44.828C37.0992 44.9 37.1192 44.988 37.1352 45.092C37.1512 45.188 37.1592 45.292 37.1592 45.404C37.1592 45.884 36.9792 46.284 36.6192 46.604C36.2592 46.916 35.7432 47.072 35.0712 47.072ZM40.2481 47.072C39.3441 47.072 38.5801 46.792 37.9561 46.232L38.4601 45.5C38.9641 45.964 39.5601 46.196 40.2481 46.196C40.5841 46.196 40.8521 46.12 41.0521 45.968C41.2521 45.816 41.3521 45.632 41.3521 45.416C41.3521 45.192 41.2521 45.024 41.0521 44.912C40.8601 44.792 40.5201 44.648 40.0321 44.48C40.0001 44.472 39.9761 44.464 39.9601 44.456C39.3921 44.256 38.9561 44.028 38.6521 43.772C38.3561 43.516 38.2081 43.144 38.2081 42.656C38.2081 42.208 38.3881 41.836 38.7481 41.54C39.1161 41.236 39.5801 41.084 40.1401 41.084C40.8841 41.084 41.5521 41.324 42.1441 41.804L41.6401 42.572C41.1761 42.172 40.6601 41.972 40.0921 41.972C39.8601 41.972 39.6521 42.036 39.4681 42.164C39.2841 42.292 39.1921 42.456 39.1921 42.656C39.1921 42.864 39.2801 43.032 39.4561 43.16C39.6401 43.288 39.9201 43.424 40.2961 43.568C40.3601 43.592 40.4761 43.636 40.6441 43.7C40.8201 43.764 40.9361 43.808 40.9921 43.832C41.0481 43.856 41.1441 43.9 41.2801 43.964C41.4161 44.02 41.5081 44.064 41.5561 44.096C41.6041 44.12 41.6761 44.164 41.7721 44.228C41.8761 44.292 41.9441 44.348 41.9761 44.396C42.0161 44.444 42.0641 44.508 42.1201 44.588C42.1841 44.668 42.2281 44.748 42.2521 44.828C42.2761 44.9 42.2961 44.988 42.3121 45.092C42.3281 45.188 42.3361 45.292 42.3361 45.404C42.3361 45.884 42.1561 46.284 41.7961 46.604C41.4361 46.916 40.9201 47.072 40.2481 47.072ZM49.7137 41.084C49.8337 41.084 49.9137 41.088 49.9537 41.096V42.176C49.7777 42.16 49.6497 42.152 49.5697 42.152C49.0257 42.152 48.5937 42.34 48.2737 42.716C47.9537 43.092 47.7937 43.58 47.7937 44.18V47H46.8217V41.156H47.7937V42.188H47.8057C48.2617 41.452 48.8977 41.084 49.7137 41.084ZM55.3392 41.156H56.3112V47H55.3752V46.076H55.3632C54.8672 46.74 54.1872 47.072 53.3232 47.072C52.4992 47.072 51.8152 46.8 51.2712 46.256C50.7272 45.712 50.4552 45 50.4552 44.12C50.4552 43.256 50.7232 42.536 51.2592 41.96C51.8032 41.376 52.4872 41.084 53.3112 41.084C54.1432 41.084 54.8152 41.4 55.3272 42.032H55.3392V41.156ZM53.4072 46.184C53.9512 46.184 54.4152 45.992 54.7992 45.608C55.1832 45.216 55.3752 44.72 55.3752 44.12C55.3752 43.52 55.1872 43.016 54.8112 42.608C54.4432 42.192 53.9792 41.984 53.4192 41.984C52.8592 41.984 52.3872 42.184 52.0032 42.584C51.6272 42.976 51.4392 43.488 51.4392 44.12C51.4392 44.72 51.6192 45.216 51.9792 45.608C52.3472 45.992 52.8232 46.184 53.4072 46.184ZM59.64 47.072C58.624 47.072 58.116 46.468 58.116 45.26V41.996H57.372V41.156H58.116V39.164L59.088 39.056V41.156H61.032V41.996H59.088V45.116C59.088 45.476 59.14 45.74 59.244 45.908C59.356 46.076 59.544 46.16 59.808 46.16C60.112 46.16 60.44 46.06 60.792 45.86L61.056 46.712C60.624 46.952 60.152 47.072 59.64 47.072ZM67.1136 43.988C67.1136 44.052 67.1096 44.136 67.1016 44.24L67.0896 44.384H62.5896C62.6536 44.928 62.8616 45.364 63.2136 45.692C63.5736 46.02 64.0176 46.184 64.5456 46.184C65.2256 46.184 65.7736 45.92 66.1896 45.392L66.8736 45.98C66.3056 46.708 65.5176 47.072 64.5096 47.072C63.6696 47.072 62.9736 46.796 62.4216 46.244C61.8776 45.684 61.6056 44.964 61.6056 44.084C61.6056 43.212 61.8696 42.496 62.3976 41.936C62.9336 41.368 63.6016 41.084 64.4016 41.084C65.2096 41.084 65.8616 41.356 66.3576 41.9C66.8616 42.444 67.1136 43.14 67.1136 43.988ZM65.5896 42.416C65.2936 42.128 64.9136 41.984 64.4496 41.984C63.9856 41.984 63.5856 42.128 63.2496 42.416C62.9216 42.696 62.7136 43.084 62.6256 43.58H66.1536C66.0736 43.092 65.8856 42.704 65.5896 42.416ZM73.3073 47.072C72.2913 47.072 71.7833 46.468 71.7833 45.26V41.996H71.0393V41.156H71.7833V39.164L72.7553 39.056V41.156H74.6993V41.996H72.7553V45.116C72.7553 45.476 72.8073 45.74 72.9113 45.908C73.0233 46.076 73.2113 46.16 73.4753 46.16C73.7793 46.16 74.1073 46.06 74.4593 45.86L74.7233 46.712C74.2913 46.952 73.8193 47.072 73.3073 47.072ZM79.0464 41.084C79.7104 41.084 80.2304 41.284 80.6064 41.684C80.9824 42.084 81.1704 42.688 81.1704 43.496V47H80.1984V43.772C80.1984 42.58 79.7224 41.984 78.7704 41.984C78.1864 41.984 77.7224 42.168 77.3784 42.536C77.0424 42.904 76.8744 43.412 76.8744 44.06V47H75.9024V38.168H76.8744V42.116H76.8984C77.3864 41.428 78.1024 41.084 79.0464 41.084ZM83.3662 40.076C83.1662 40.076 82.9982 40.012 82.8622 39.884C82.7342 39.748 82.6702 39.584 82.6702 39.392C82.6702 39.2 82.7342 39.04 82.8622 38.912C82.9982 38.776 83.1662 38.708 83.3662 38.708C83.5582 38.708 83.7222 38.776 83.8582 38.912C83.9942 39.048 84.0622 39.208 84.0622 39.392C84.0622 39.584 83.9942 39.748 83.8582 39.884C83.7222 40.012 83.5582 40.076 83.3662 40.076ZM82.8742 47V41.156H83.8462V47H82.8742ZM87.4582 47.072C86.5542 47.072 85.7902 46.792 85.1662 46.232L85.6702 45.5C86.1742 45.964 86.7702 46.196 87.4582 46.196C87.7942 46.196 88.0622 46.12 88.2622 45.968C88.4622 45.816 88.5622 45.632 88.5622 45.416C88.5622 45.192 88.4622 45.024 88.2622 44.912C88.0702 44.792 87.7302 44.648 87.2422 44.48C87.2102 44.472 87.1862 44.464 87.1702 44.456C86.6022 44.256 86.1662 44.028 85.8622 43.772C85.5662 43.516 85.4182 43.144 85.4182 42.656C85.4182 42.208 85.5982 41.836 85.9582 41.54C86.3262 41.236 86.7902 41.084 87.3502 41.084C88.0942 41.084 88.7622 41.324 89.3542 41.804L88.8502 42.572C88.3862 42.172 87.8702 41.972 87.3022 41.972C87.0702 41.972 86.8622 42.036 86.6782 42.164C86.4942 42.292 86.4022 42.456 86.4022 42.656C86.4022 42.864 86.4902 43.032 86.6662 43.16C86.8502 43.288 87.1302 43.424 87.5062 43.568C87.5702 43.592 87.6862 43.636 87.8542 43.7C88.0302 43.764 88.1462 43.808 88.2022 43.832C88.2582 43.856 88.3542 43.9 88.4902 43.964C88.6262 44.02 88.7182 44.064 88.7662 44.096C88.8142 44.12 88.8862 44.164 88.9822 44.228C89.0862 44.292 89.1542 44.348 89.1862 44.396C89.2262 44.444 89.2742 44.508 89.3302 44.588C89.3942 44.668 89.4382 44.748 89.4622 44.828C89.4862 44.9 89.5062 44.988 89.5222 45.092C89.5382 45.188 89.5462 45.292 89.5462 45.404C89.5462 45.884 89.3662 46.284 89.0062 46.604C88.6462 46.916 88.1302 47.072 87.4582 47.072ZM98.1118 41.156H99.1438L95.8438 49.376H94.8118L95.8558 46.76L93.3838 41.156H94.4278L96.3238 45.608H96.3478L98.1118 41.156ZM105.083 43.988C105.083 44.052 105.079 44.136 105.071 44.24L105.059 44.384H100.559C100.623 44.928 100.831 45.364 101.183 45.692C101.543 46.02 101.987 46.184 102.515 46.184C103.195 46.184 103.743 45.92 104.159 45.392L104.843 45.98C104.275 46.708 103.487 47.072 102.479 47.072C101.639 47.072 100.943 46.796 100.391 46.244C99.8472 45.684 99.5752 44.964 99.5752 44.084C99.5752 43.212 99.8392 42.496 100.367 41.936C100.903 41.368 101.571 41.084 102.371 41.084C103.179 41.084 103.831 41.356 104.327 41.9C104.831 42.444 105.083 43.14 105.083 43.988ZM103.559 42.416C103.263 42.128 102.883 41.984 102.419 41.984C101.955 41.984 101.555 42.128 101.219 42.416C100.891 42.696 100.683 43.084 100.595 43.58H104.123C104.043 43.092 103.855 42.704 103.559 42.416ZM110.972 41.156H111.944V47H111.008V46.076H110.996C110.5 46.74 109.82 47.072 108.956 47.072C108.132 47.072 107.448 46.8 106.904 46.256C106.36 45.712 106.088 45 106.088 44.12C106.088 43.256 106.356 42.536 106.892 41.96C107.436 41.376 108.12 41.084 108.944 41.084C109.776 41.084 110.448 41.4 110.96 42.032H110.972V41.156ZM109.04 46.184C109.584 46.184 110.048 45.992 110.432 45.608C110.816 45.216 111.008 44.72 111.008 44.12C111.008 43.52 110.82 43.016 110.444 42.608C110.076 42.192 109.612 41.984 109.052 41.984C108.492 41.984 108.02 42.184 107.636 42.584C107.26 42.976 107.072 43.488 107.072 44.12C107.072 44.72 107.252 45.216 107.612 45.608C107.98 45.992 108.456 46.184 109.04 46.184ZM116.509 41.084C116.629 41.084 116.709 41.088 116.749 41.096V42.176C116.573 42.16 116.445 42.152 116.365 42.152C115.821 42.152 115.389 42.34 115.069 42.716C114.749 43.092 114.589 43.58 114.589 44.18V47H113.617V41.156H114.589V42.188H114.601C115.057 41.452 115.693 41.084 116.509 41.084Z" fill="#4A556C"/>
</svg>
